# xmcd CD database file
#
# Track frame offsets:
#	150
#	24479
#	48168
#	72498
#
# Disc length: 1279 seconds
#
# Revision: 0
# Processed by: cddbd v1.5.1PL0 Copyright (c) Steve Scherf et al.
# Submitted via: CDex 1.51
#
DISCID=2e04fd04
DTITLE=伊藤真澄 - 少年ハミング
DYEAR=2005
DGENRE=Anime
TTITLE0=少年ハミング
TTITLE1=うたかた
TTITLE2=少年ハミング (off Vocal)
TTITLE3=うたかた (off Vocal)
EXTD=YEAR: 2005
EXTT0=
EXTT1=
EXTT2=
EXTT3=
PLAYORDER=
